<svg id="Capa_1" data-name="Capa 1" xmlns="http://www.w3.org/2000/svg" xmlns:xlink="http://www.w3.org/1999/xlink" viewBox="0 0 586.24 379.64"><defs><style>.cls-1{fill:#fff;}.cls-2{clip-path:url(#clip-path);}.cls-3{clip-path:url(#clip-path-2);}</style><clipPath id="clip-path" transform="translate(88.31 -69.69)"><path class="cls-1" d="M180.22,206c-.2.28-.14.57.19.9,1.92,2,3.83,3.92,5.76,5.88a1.14,1.14,0,0,0,.15.17l-.12.05c-2.08.79-4.16,1.6-6.25,2.38a.41.41,0,0,1-.31,0c-1.31-.57-2.61-1.15-3.91-1.74-.07,0-.14-.08-.21-.08a.27.27,0,0,0-.22.08.27.27,0,0,0,0,.23c0,.06.07.1.11.14l2.72,2.78c.2.2.17.39-.1.51a.61.61,0,0,0-.39.81.62.62,0,0,0,.83.36c.27-.09.43,0,.41.32,0,1.25-.12,2.51-.17,3.77a.41.41,0,0,0,0,.22c0,.06.07.16.13.18a.41.41,0,0,0,.23-.07c0-.05.06-.12.1-.18.57-1.29,1.14-2.58,1.73-3.87a.43.43,0,0,1,.2-.2c2.1-.82,4.22-1.62,6.32-2.43l.16,0c0,.08,0,.13,0,.18-.13,2.77-.27,5.54-.39,8.3a1,1,0,0,0,0,.3.6.6,0,0,0,.47.48.58.58,0,0,0,.62-.3c.05-.07.08-.16.13-.25l4.77-10.72a.49.49,0,0,1,.28-.27c1.06-.4,2.13-.79,3.18-1.22a6.77,6.77,0,0,0,1.09-.59,5.63,5.63,0,0,0,1.48-1.44l.18-.4a.75.75,0,0,0-.59-.89,1.38,1.38,0,0,0-.27-.08,5.66,5.66,0,0,0-3.08.21c-1.06.39-2.12.8-3.18,1.21a.43.43,0,0,1-.41,0l-10.73-4.8a1.36,1.36,0,0,0-.46-.12.54.54,0,0,0-.46.25"/></clipPath><clipPath id="clip-path-2" transform="translate(88.31 -69.69)"><path class="cls-1" d="M34.15,284.05,12.27,299.53,36,286.45c32.29,73.64,130.46,62.7,154.74,5.34l-8.54-3.2c-30.68,56.82-116,54.16-137.66-7.21C86.7,256.62,136.23,237.26,177.94,219c-47.09,9.42-94,30.73-134.72,59.49C21.87,195.21,107,158.93,157.93,192l6.67-6.66a89.29,89.29,0,0,0-48.51-13.92c-50.27,0-100.08,39.85-81.94,112.62"/></clipPath></defs><path class="cls-1" d="M180.22,206c-.2.28-.14.57.19.9,1.92,2,3.83,3.92,5.76,5.88a1.14,1.14,0,0,0,.15.17l-.12.05c-2.08.79-4.16,1.6-6.25,2.38a.41.41,0,0,1-.31,0c-1.31-.57-2.61-1.15-3.91-1.74-.07,0-.14-.08-.21-.08a.27.27,0,0,0-.22.08.27.27,0,0,0,0,.23c0,.06.07.1.11.14l2.72,2.78c.2.2.17.39-.1.51a.61.61,0,0,0-.39.81.62.62,0,0,0,.83.36c.27-.09.43,0,.41.32,0,1.25-.12,2.51-.17,3.77a.41.41,0,0,0,0,.22c0,.06.07.16.13.18a.41.41,0,0,0,.23-.07c0-.05.06-.12.1-.18.57-1.29,1.14-2.58,1.73-3.87a.43.43,0,0,1,.2-.2c2.1-.82,4.22-1.62,6.32-2.43l.16,0c0,.08,0,.13,0,.18-.13,2.77-.27,5.54-.39,8.3a1,1,0,0,0,0,.3.6.6,0,0,0,.47.48.58.58,0,0,0,.62-.3c.05-.07.08-.16.13-.25l4.77-10.72a.49.49,0,0,1,.28-.27c1.06-.4,2.13-.79,3.18-1.22a6.77,6.77,0,0,0,1.09-.59,5.63,5.63,0,0,0,1.48-1.44l.18-.4a.75.75,0,0,0-.59-.89,1.38,1.38,0,0,0-.27-.08,5.66,5.66,0,0,0-3.08.21c-1.06.39-2.12.8-3.18,1.21a.43.43,0,0,1-.41,0l-10.73-4.8a1.36,1.36,0,0,0-.46-.12.54.54,0,0,0-.46.25" transform="translate(88.31 -69.69)"/><g class="cls-2"><rect class="cls-1" x="171.83" y="200.1" width="31.01" height="31.01" transform="translate(-9.27 125.93) rotate(-45)"/></g><path class="cls-1" d="M34.15,284.05,12.27,299.53,36,286.45c32.29,73.64,130.46,62.7,154.74,5.34l-8.54-3.2c-30.68,56.82-116,54.16-137.66-7.21C86.7,256.62,136.23,237.26,177.94,219c-47.09,9.42-94,30.73-134.72,59.49C21.87,195.21,107,158.93,157.93,192l6.67-6.66a89.29,89.29,0,0,0-48.51-13.92c-50.27,0-100.08,39.85-81.94,112.62" transform="translate(88.31 -69.69)"/><g class="cls-3"><rect class="cls-1" x="-32.71" y="125.29" width="268.44" height="268.44" transform="translate(-65.46 78.1) rotate(-45)"/></g><path class="cls-1" d="M242,251.83c0-11.62,7.29-19.55,18-19.55,8.13,0,14.53,4.91,16.07,12.42H272c-1.58-5.44-6.23-8.77-12.15-8.77-8.3,0-13.85,6.34-13.85,15.9s5.55,15.86,13.85,15.86c6,0,10.72-3.22,12.37-8.3h4.06c-1.74,7.13-8.34,11.94-16.49,11.94C249.18,271.33,242,263.46,242,251.83Z" transform="translate(88.31 -69.69)"/><path class="cls-1" d="M310.57,270.75V232.91h22.62v3.49H314.38V250h17.07v3.43H314.38v13.8h18.87v3.48Z" transform="translate(88.31 -69.69)"/><path class="cls-1" d="M368.64,270.75V232.91h3.86l20.82,31.5v-31.5h3.76v37.84h-3.76l-20.87-31.49v31.49Z" transform="translate(88.31 -69.69)"/><path class="cls-1" d="M437.85,270.75h-3.8V232.91h3.8Z" transform="translate(88.31 -69.69)"/><path class="cls-1" d="M470.82,232.91h27.11v3.49H486.25v34.35h-3.8V236.4H470.82Z" transform="translate(88.31 -69.69)"/><path class="cls-1" d="M282.39,293h1.52l5.46,14.35h-1.45l-1.66-4.52H280l-1.69,4.52H277Zm3.46,8.73-2-5.36c-.3-.8-.72-2.09-.72-2.09h0s-.38,1.23-.7,2.09l-2,5.36Z" transform="translate(88.31 -69.69)"/><path class="cls-1" d="M303.1,293h1.4l3.71,10.6c.33.87.77,2.36.77,2.36h0s.46-1.54.79-2.42L313.53,293h1.36l-5.19,14.35h-1.47Z" transform="translate(88.31 -69.69)"/><path class="cls-1" d="M331.41,293h1.35v14.35h-1.35Z" transform="translate(88.31 -69.69)"/><path class="cls-1" d="M354.72,293h1.53l5.45,14.35h-1.44l-1.66-4.52h-6.24l-1.69,4.52h-1.36Zm3.47,8.73-2-5.36c-.3-.8-.72-2.09-.72-2.09h-.05s-.38,1.23-.69,2.09l-2,5.36Z" transform="translate(88.31 -69.69)"/><path class="cls-1" d="M380.39,294.23h-4.85V293h11v1.2h-4.83v13.15h-1.35Z" transform="translate(88.31 -69.69)"/><path class="cls-1" d="M403.31,293h1.35v14.35h-1.35Z" transform="translate(88.31 -69.69)"/><path class="cls-1" d="M421.77,300.2c0-4.28,2.61-7.47,6.66-7.47s6.7,3.19,6.7,7.47-2.63,7.46-6.7,7.46S421.77,304.47,421.77,300.2Zm12,0c0-3.48-1.84-6.26-5.29-6.26s-5.26,2.78-5.26,6.26,1.83,6.25,5.26,6.25S433.72,303.66,433.72,300.2Z" transform="translate(88.31 -69.69)"/><path class="cls-1" d="M452.15,293h1.46l6.6,10.07c.73,1.09,1.42,2.37,1.42,2.37h.05V293H463v14.35h-1.4l-6.58-10c-.66-1-1.51-2.42-1.51-2.42h0v12.38h-1.28Z" transform="translate(88.31 -69.69)"/></svg>